Coordinates
version=1
nRows=32
nColumns=22
inDegrees=yes

Units are S.I. units (second, meters, Newtons, ...)
If the header above contains a line with 'inDegrees', this indicates whether rotational values are in degrees (yes) or radians (no).

endheader
time	pelvis_tilt	pelvis_list	pelvis_rotation	pelvis_tx	pelvis_ty	pelvis_tz	hip_flexion_r	hip_adduction_r	hip_rotation_r	knee_angle_r	ankle_angle_r	subtalar_angle_r	hip_flexion_l	hip_adduction_l	hip_rotation_l	knee_angle_l	ankle_angle_l	subtalar_angle_l	lumbar_extension	lumbar_bending	lumbar_rotation
      0.01000000	      1.68918226	     -3.85603755	      0.08149202	     -1.10191514	      0.91072221	     -0.08207315	    -17.19507878	      8.82374659	     -5.69892147	     -6.24392426	     19.01694530	      1.23686304	     29.44830688	     -3.36261455	    -12.68953033	    -21.01419493	     12.03249790	     -3.82781803	    -15.71659310	      5.31085001	     -2.84328374
      0.02000000	      1.64799863	     -3.86733880	     -0.04757307	     -1.09622052	      0.90929802	     -0.08233072	    -17.59048692	      8.75801349	     -5.51259444	     -6.19873355	     19.13098803	      1.27170666	     29.65153620	     -3.30722881	    -12.46492989	    -20.86542882	     12.02739359	     -3.80652589	    -15.73024151	      5.30796465	     -2.82267619
      0.03000000	      1.67608336	     -3.86586276	     -0.19269878	     -1.08945412	      0.90780015	     -0.08260916	    -18.14909948	      8.66817783	     -5.29534153	     -6.12900370	     19.11686389	      1.37853710	     29.81082908	     -3.25296079	    -12.22601494	    -20.82241770	     11.97659833	     -3.78272050	    -15.83046652	      5.26909421	     -2.78518604
      0.04000000	      1.64241457	     -3.87090679	     -0.33870948	     -1.08187987	      0.90607280	     -0.08295112	    -18.66345855	      8.57503006	     -5.13191908	     -6.12128576	     19.17507312	      1.45387300	     30.06605429	     -3.20540645	    -11.90154878	    -20.92384381	     11.88634950	     -3.81780654	    -15.84927342	      5.23048404	     -2.73206277
      0.05000000	      1.64498593	     -3.87334393	     -0.48037924	     -1.07369683	      0.90438443	     -0.08334980	    -19.25396592	      8.47304875	     -4.91162676	     -6.11923704	     19.07617730	      1.63148239	     30.30353011	     -3.16922299	    -11.55229888	    -21.22296166	     11.76308850	     -3.99304378	    -15.90805505	      5.18155519	     -2.70275294
      0.06000000	      1.62886795	     -3.85747822	     -0.63354738	     -1.06500175	      0.90271844	     -0.08376813	    -19.84085799	      8.34027405	     -4.75122902	     -6.13868239	     18.88882814	      1.99264884	     30.56206515	     -3.13757454	    -11.21741130	    -21.73243326	     11.65766446	     -4.46304777	    -15.91663100	      5.09301555	     -2.58968240
      0.07000000	      1.59615372	     -3.82975046	     -0.76790570	     -1.05595432	      0.90111310	     -0.08423719	    -20.38677528	      8.19349575	     -4.62597655	     -6.23769067	     18.70634988	      2.37766006	     30.86449663	     -3.11470220	    -10.93658902	    -22.50817030	     11.47589322	     -5.08641051	    -15.88045788	      4.98443215	     -2.51839703
      0.08000000	      1.55167279	     -3.78927873	     -0.89635398	     -1.04659226	      0.89964081	     -0.08475944	    -20.92059265	      8.02810388	     -4.47573933	     -6.35986322	     18.40986883	      2.78545378	     31.17852701	     -3.09528248	    -10.70573086	    -23.51020469	     11.23723156	     -5.86774482	    -15.80098225	      4.85603304	     -2.42661649
      0.09000000	      1.49683564	     -3.72589444	     -1.01291882	     -1.03693406	      0.89833631	     -0.08532607	    -21.42810973	      7.83597728	     -4.31280439	     -6.52882718	     18.00563411	      3.25181302	     31.49446571	     -3.06799101	    -10.56180188	    -24.71260887	     10.95450135	     -6.86152106	    -15.67299280	      4.69463504	     -2.33582895
      0.10000000	      1.43763857	     -3.62931397	     -1.11543444	     -1.02698336	      0.89723144	     -0.08595887	    -21.90445820	      7.60385771	     -4.15194708	     -6.76286228	     17.49585579	      3.77699478	     31.78692608	     -3.01505833	    -10.50924243	    -26.05344511	     10.65038478	     -8.06779799	    -15.50124663	      4.49453562	     -2.25444230
      0.11000000	      1.37212930	     -3.49513376	     -1.20083939	     -1.01672974	      0.89634131	     -0.08663411	    -22.35107939	      7.33236084	     -3.96444148	     -7.05183873	     16.85433978	      4.33216193	     32.03887871	     -2.92600987	    -10.53373980	    -27.46311839	     10.36759772	     -9.42518939	    -15.27884002	      4.24479858	     -2.19637023
      0.12000000	      1.30631662	     -3.31071268	     -1.26149680	     -1.00617907	      0.89568966	     -0.08739030	    -22.76121048	      7.00775090	     -3.77967629	     -7.41550002	     16.09001128	      4.92576318	     32.22105941	     -2.77135988	    -10.60029298	    -28.85743098	     10.14395824	    -10.88961730	    -15.01349831	      3.94056289	     -2.16243476
      0.13000000	      1.24902737	     -3.06213386	     -1.29356835	     -0.99534349	      0.89529515	     -0.08823594	    -23.11218534	      6.61386297	     -3.65225233	     -7.90936691	     15.22125571	      5.58207835	     32.30861993	     -2.52916823	    -10.69065416	    -30.17637388	     10.03442284	    -12.39075298	    -14.71734158	      3.56404375	     -2.17252810
      0.14000000	      1.19790721	     -2.77133262	     -1.29020739	     -0.98422641	      0.89515184	     -0.08915043	    -23.44986684	      6.18697434	     -3.44948523	     -8.43353634	     14.18583826	      6.24655025	     32.30185328	     -2.20881313	    -10.74060859	    -31.38696125	     10.03638427	    -13.78632012	    -14.38537214	      3.13980605	     -2.23010830
      0.15000000	      1.16035228	     -2.41139752	     -1.24473242	     -0.97284476	      0.89526055	     -0.09019352	    -23.72618119	      5.69255617	     -3.29346476	     -9.09184593	     13.04381981	      6.99607053	     32.17957674	     -1.77179029	    -10.75457590	    -32.44926781	     10.19719399	    -15.08387504	    -14.03047445	      2.64307361	     -2.33817363
      0.16000000	      1.14022175	     -2.00268201	     -1.17955106	     -0.96125017	      0.89563694	     -0.09131703	    -23.93956830	      5.14730147	     -3.12157194	     -9.88256315	     11.76214095	      7.81380804	     31.92871280	     -1.23300360	    -10.66953626	    -33.33524517	     10.51056980	    -16.21212016	    -13.66422219	      2.09007606	     -2.46070110
      0.17000000	      1.14513346	     -1.56364695	     -1.08553008	     -0.94944361	      0.89625788	     -0.09251735	    -24.10410228	      4.57459069	     -2.96809798	    -10.78941634	     10.31504629	      8.67128737	     31.56706562	     -0.62930777	    -10.54210349	    -34.09662498	     10.92219296	    -17.14292712	    -13.29693832	      1.50378305	     -2.62404019
      0.18000000	      1.18366248	     -1.10575582	     -0.97186936	     -0.93748326	      0.89714464	     -0.09378777	    -24.20902159	      3.98362198	     -2.81157616	    -11.83869794	      8.67735862	      9.52525998	     31.07430386	      0.03549235	    -10.33172562	    -34.70726238	     11.45038518	    -17.86161060	    -12.94871844	      0.89689206	     -2.80136549
      0.19000000	      1.25547668	     -0.64807727	     -0.85227033	     -0.92541402	      0.89828682	     -0.09510083	    -24.23033858	      3.38749556	     -2.67032311	    -13.06420983	      6.83764365	     10.35707198	     30.45920304	      0.72323909	    -10.07644257	    -35.18536617	     12.06505276	    -18.38777810	    -12.62527487	      0.29149965	     -2.97956837
      0.20000000	      1.36122229	     -0.20740418	     -0.73889501	     -0.91329944	      0.89968036	     -0.09642296	    -24.14924069	      2.79881536	     -2.53908674	    -14.48840599	      4.79389389	     11.10241574	     29.72603769	      1.40221247	     -9.80140265	    -35.53737182	     12.74430427	    -18.72755242	    -12.33723035	     -0.29457445	     -3.14727833
      0.21000000	      1.50284189	      0.20275401	     -0.64117237	     -0.90119743	      0.90131915	     -0.09773467	    -23.94828777	      2.22695985	     -2.41659365	    -16.13429883	      2.56312302	     11.71226360	     28.87600047	      2.04698755	     -9.53323005	    -35.76460027	     13.46514676	    -18.91159531	    -12.09494160	     -0.84353639	     -3.29936537
      0.22000000	      1.67122335	      0.57329921	     -0.57134600	     -0.88917743	      0.90317316	     -0.09901242	    -23.59624040	      1.67600660	     -2.29092482	    -18.02955518	      0.19330300	     12.16744025	     27.92409510	      2.63576165	     -9.30294845	    -35.86861489	     14.19371589	    -18.98107124	    -11.89740799	     -1.34296670	     -3.42933820
      0.23000000	      1.85800202	      0.88556167	     -0.52723405	     -0.87731148	      0.90519577	     -0.10023217	    -23.06973614	      1.16847344	     -2.15585666	    -20.18617036	     -2.25933804	     12.37286871	     26.89246496	      3.14368449	     -9.11522239	    -35.86249298	     14.88716163	    -18.94305373	    -11.74521670	     -1.77309564	     -3.54210495
      0.24000000	      2.07341312	      1.16216635	     -0.53776667	     -0.86564054	      0.90736448	     -0.10135841	    -22.36464827	      0.66848191	     -2.00100552	    -22.62359264	     -4.64364867	     12.53893478	     25.76685828	      3.57644713	     -9.03324310	    -35.73475608	     15.58814028	    -18.86927518	    -11.65768465	     -2.16079297	     -3.62551472
      0.25000000	      2.30400819	      1.39416477	     -0.59358560	     -0.85422665	      0.90960591	     -0.10239623	    -21.46572751	      0.19220355	     -1.82485047	    -25.32603074	     -6.87942311	     12.66490338	     24.57948444	      3.92848039	     -9.04766979	    -35.50435462	     16.26537446	    -18.75296969	    -11.62868220	     -2.49316285	     -3.69696533
      0.26000000	      2.54210893	      1.58493534	     -0.68852506	     -0.84311398	      0.91185911	     -0.10335371	    -20.37328954	     -0.25967983	     -1.63591374	    -28.25672222	     -8.86001121	     12.80247997	     23.35169583	      4.20590210	     -9.15631550	    -35.18512274	     16.89758979	    -18.59470622	    -11.65633733	     -2.77001217	     -3.76379109
      0.27000000	      2.77791428	      1.74431224	     -0.82035953	     -0.83233424	      0.91405364	     -0.10423045	    -19.08864653	     -0.69654777	     -1.44865797	    -31.37141529	    -10.51105352	     12.98732104	     22.11266174	      4.42260969	     -9.35072335	    -34.80277200	     17.47705660	    -18.39977732	    -11.73243824	     -3.00659956	     -3.83536337
      0.28000000	      3.00947871	      1.88045940	     -0.97908726	     -0.82189445	      0.91615415	     -0.10505265	    -17.63335318	     -1.12673835	     -1.28447806	    -34.60324515	    -11.76348946	     13.26567553	     20.87314611	      4.59393448	     -9.62220219	    -34.36829794	     18.00515693	    -18.16618464	    -11.85680611	     -3.20766075	     -3.91942181
      0.29000000	      3.23031015	      1.99624156	     -1.15048342	     -0.81178174	      0.91813115	     -0.10584785	    -16.02889834	     -1.55314333	     -1.16326321	    -37.87573463	    -12.57111222	     13.65486092	     19.65084150	      4.73258651	     -9.94623794	    -33.90150904	     18.48589433	    -17.88583058	    -12.01904151	     -3.37491679	     -4.02611199
      0.30000000	      3.43577952	      2.08505898	     -1.30383851	     -0.80196628	      0.91997152	     -0.10665786	    -14.30908465	     -1.95653155	     -1.08837107	    -41.09996110	    -12.93709306	     14.16840692	     18.45967266	      4.84239478	    -10.28922018	    -33.42121904	     18.95933023	    -17.52903894	    -12.20858872	     -3.49365282	     -4.19970312
      0.31000000	      3.64381088	      2.16820564	     -1.46059475	     -0.79241093	      0.92175082	     -0.10746363	    -12.51179505	     -2.36951785	     -1.04653383	    -44.21483668	    -12.92360372	     14.45019959	     17.26244854	      4.95455978	    -10.63533400	    -32.89375855	     19.34806255	    -17.27535529	    -12.44000054	     -3.59563094	     -4.37821272
      0.32000000	      3.81290877	      2.19755758	     -1.55374795	     -0.78309714	      0.92337498	     -0.10833115	    -10.62810246	     -2.71975023	     -1.07446181	    -47.15760962	    -12.53581115	     14.89399877	     16.14165237	      5.01741490	    -10.94781047	    -32.39938597	     19.72031000	    -16.85543243	    -12.66017036	     -3.61410446	     -4.63277044
